<svg width="238" height="18" viewBox="0 0 238 18" fill="none" xmlns="http://www.w3.org/2000/svg" role="img" aria-label="Mystic fantasy title divider">
  <g fill="none" stroke="currentColor" stroke-width="1.05" stroke-linecap="round" stroke-linejoin="round">
    <path d="M11 9H89"/>
    <path d="M149 9H227"/>
    <path d="M119 1.1C121.25 4.2 124.1 6.7 128.2 9C124.1 11.3 121.25 13.8 119 16.9C116.75 13.8 113.9 11.3 109.8 9C113.9 6.7 116.75 4.2 119 1.1Z"/>
    <path d="M119 4.1C120.25 6.05 121.8 7.55 124.1 9C121.8 10.45 120.25 11.95 119 13.9C117.75 11.95 116.2 10.45 113.9 9C116.2 7.55 117.75 6.05 119 4.1Z"/>
    <path d="M109.8 9c-5.85-3.55-10.3-4.35-13.1-2.35c-2.35 1.7-2.35 4.99 0 6.69c2.8 2 7.25 1.2 13.1-2.34Z"/>
    <path d="M128.2 9c5.85-3.55 10.3-4.35 13.1-2.35c2.35 1.7 2.35 4.99 0 6.69c-2.8 2-7.25 1.2-13.1-2.34Z"/>
    <path d="M103.9 5.05c1.2 1.25 2.15 2.55 2.9 3.95c-.75 1.4-1.7 2.7-2.9 3.95"/>
    <path d="M134.1 5.05c-1.2 1.25-2.15 2.55-2.9 3.95c.75 1.4 1.7 2.7 2.9 3.95"/>
    <path d="M5.4 3.65L10.75 9L5.4 14.35L.05 9L5.4 3.65Z"/>
    <path d="M232.6 3.65L237.95 9L232.6 14.35L227.25 9L232.6 3.65Z"/>
    <path d="M7 1.05c2.1 2.9 4.95 5.6 8.55 7.95C11.95 11.35 9.1 14.05 7 16.95"/>
    <path d="M231 1.05c-2.1 2.9-4.95 5.6-8.55 7.95c3.6 2.35 6.45 5.05 8.55 7.95"/>
    <path d="M25.5 5.3c3.15 1.35 5.9 2.6 8.3 3.7c-2.4 1.1-5.15 2.35-8.3 3.7"/>
    <path d="M212.5 5.3c-3.15 1.35-5.9 2.6-8.3 3.7c2.4 1.1 5.15 2.35 8.3 3.7"/>
    <circle cx="119" cy="9" r="1.1" fill="currentColor" stroke="none"/>
    <circle cx="56" cy="9" r=".7" fill="currentColor" stroke="none"/>
    <circle cx="182" cy="9" r=".7" fill="currentColor" stroke="none"/>
  </g>
</svg>
